Coordinates
version=1
nRows=34
nColumns=38
inDegrees=no

Units are S.I. units (second, meters, Newtons, ...)
If the header above contains a line with 'inDegrees', this indicates whether rotational values are in degrees (yes) or radians (no).

endheader
time	pelvis_tilt	pelvis_list	pelvis_rotation	pelvis_tx	pelvis_ty	pelvis_tz	hip_flexion_r	hip_adduction_r	hip_rotation_r	knee_angle_r	ankle_angle_r	subtalar_angle_r	mtp_angle_r	hip_flexion_l	hip_adduction_l	hip_rotation_l	knee_angle_l	ankle_angle_l	subtalar_angle_l	mtp_angle_l	lumbar_extension	lumbar_bending	lumbar_rotation	arm_flex_r	arm_add_r	arm_rot_r	elbow_flex_r	pro_sup_r	wrist_flex_r	wrist_dev_r	arm_flex_l	arm_add_l	arm_rot_l	elbow_flex_l	pro_sup_l	wrist_flex_l	wrist_dev_l
1.99	2.94805	1.45601	-1.28951	0.676546	1.49878	0.914269	0.317778	-0.0250006	-0.268924	0.225045	0.137849	0	0	-0.415082	0.0153538	-0.100889	0.156428	0.285561	0	0	-0.289462	-0.0467913	-0.176252	-0.0803223	-0.171683	0.0204102	0.418743	1.18929	0	0	0.000980872	-0.416255	0.271609	0.800019	1.2761	0	0
2	2.94321	1.45545	-1.2804	0.677042	1.51031	0.913297	0.312793	-0.0219742	-0.268876	0.234675	0.126964	0	0	-0.414377	0.00750576	-0.114165	0.185357	0.292034	0	0	-0.288972	-0.0421996	-0.182931	-0.079334	-0.171112	0.0208194	0.419245	1.19537	0	0	-0.0049529	-0.412711	0.267859	0.800452	1.27757	0	0
2.01	2.92488	1.45484	-1.25916	0.677755	1.52198	0.912505	0.305148	-0.0152515	-0.264365	0.233863	0.0987305	0	0	-0.411219	-0.00245637	-0.130332	0.218467	0.296973	0	0	-0.287785	-0.0361812	-0.187933	-0.078216	-0.170557	0.0209551	0.419299	1.20062	0	0	-0.0109467	-0.408574	0.264227	0.799161	1.27939	0	0
2.02	2.89851	1.4548	-1.23132	0.678717	1.53384	0.911803	0.297159	-0.00755556	-0.260345	0.230359	0.063477	0	0	-0.404971	-0.013849	-0.14873	0.256179	0.299909	0	0	-0.285194	-0.0297859	-0.191172	-0.0773905	-0.170116	0.0211487	0.419086	1.20542	0	0	-0.0172496	-0.404337	0.261345	0.796508	1.28175	0	0
2.03	2.86811	1.45571	-1.20076	0.679916	1.54588	0.911173	0.291695	-0.000810408	-0.259079	0.232707	0.0343005	0	0	-0.395005	-0.0262076	-0.168077	0.299067	0.299848	0	0	-0.280927	-0.0236296	-0.192755	-0.0770801	-0.169641	0.0211227	0.418786	1.20996	0	0	-0.0234573	-0.400124	0.259947	0.792247	1.28418	0	0
2.04	2.83099	1.45611	-1.16434	0.68123	1.55805	0.910808	0.287839	0.00560724	-0.261365	0.241692	0.0144767	0	0	-0.382547	-0.0403047	-0.186708	0.346838	0.295009	0	0	-0.276356	-0.0166926	-0.192988	-0.0771094	-0.168922	0.0202678	0.41836	1.21309	0	0	-0.0292019	-0.395587	0.26	0.786097	1.2865	0	0
2.05	2.76421	1.45561	-1.09856	0.682668	1.57029	0.910631	0.286352	0.0148879	-0.264612	0.256103	0.00413874	0	0	-0.362841	-0.0610685	-0.209891	0.407816	0.287683	0	0	-0.270463	-0.00625	-0.192239	-0.0782217	-0.171253	0.0368931	0.420959	1.18599	0	0	-0.0347028	-0.390099	0.259782	0.777499	1.2934	0	0
2.06	2.72111	1.45011	-1.0581	0.684117	1.5827	0.911391	0.279162	0.0242753	-0.263665	0.273402	0.00464156	0	0	-0.351142	-0.0787631	-0.219798	0.459663	0.264643	0	0	-0.270355	0.00390866	-0.189038	-0.0775	-0.171227	0.0351746	0.419739	1.19157	0	0	-0.0393128	-0.384962	0.262345	0.769459	1.29485	0	0
2.07	2.65948	1.44485	-0.999733	0.685762	1.59491	0.912223	0.273807	0.0365068	-0.261	0.291352	0.0109167	0	0	-0.330227	-0.101744	-0.232626	0.524208	0.232821	0	0	-0.268719	0.0161615	-0.184458	-0.0768339	-0.171521	0.0345672	0.419299	1.1962	0	0	-0.043176	-0.379931	0.266228	0.760876	1.296	0	0
2.08	2.59534	1.44073	-0.940259	0.687554	1.60689	0.913042	0.269289	0.0493454	-0.256925	0.30653	0.0178964	0	0	-0.302851	-0.126041	-0.24425	0.59431	0.190371	0	0	-0.265593	0.0280537	-0.178414	-0.0761893	-0.172257	0.0361256	0.419341	1.1995	0	0	-0.0469094	-0.375364	0.27115	0.75317	1.29636	0	0
2.09	2.52321	1.43916	-0.874096	0.689464	1.61867	0.913546	0.267054	0.0620467	-0.25209	0.317895	0.0233632	0	0	-0.26762	-0.150953	-0.253696	0.669205	0.135159	0	0	-0.258921	0.0389762	-0.171259	-0.0761995	-0.173542	0.0404744	0.419931	1.2015	0	0	-0.0508974	-0.371564	0.278054	0.746274	1.29539	0	0
2.1	2.46265	1.43875	-0.820085	0.691429	1.63032	0.913944	0.263109	0.0732238	-0.246057	0.324232	0.0270746	0	0	-0.230798	-0.17245	-0.256499	0.741464	0.0748757	0	0	-0.25149	0.0473165	-0.164367	-0.0783864	-0.178962	0.0731848	0.426023	1.15548	0	0	-0.0559861	-0.37039	0.289976	0.743461	1.27787	0	0
2.11	2.40637	1.43896	-0.770985	0.693473	1.6418	0.914188	0.257402	0.0843352	-0.238211	0.325936	0.0300833	0	0	-0.192226	-0.192055	-0.256037	0.812016	0.0134345	0	0	-0.243914	0.0542899	-0.15665	-0.0794531	-0.180842	0.0837942	0.427516	1.14526	0	0	-0.0612609	-0.369357	0.298304	0.74217	1.27417	0	0
2.12	2.35919	1.44394	-0.73067	0.695581	1.65331	0.913782	0.247955	0.0964765	-0.218217	0.313823	0.0308049	0	0	-0.14897	-0.206035	-0.252091	0.881493	-0.050175	0	0	-0.232855	0.0559103	-0.149903	-0.0823129	-0.182014	0.0926921	0.429613	1.13603	0	0	-0.0681265	-0.370585	0.306711	0.744409	1.27324	0	0
2.13	2.32569	1.44419	-0.704139	0.697515	1.66434	0.914121	0.238169	0.105548	-0.209296	0.31192	0.03509	0	0	-0.110066	-0.220901	-0.247282	0.94634	-0.116216	0	0	-0.228127	0.059966	-0.142046	-0.0838684	-0.183084	0.0968761	0.431921	1.12876	0	0	-0.0723845	-0.370413	0.312314	0.745149	1.27524	0	0
2.14	2.32429	1.44301	-0.708956	0.699295	1.67522	0.914974	0.224178	0.112565	-0.198887	0.310026	0.0399049	0	0	-0.0758911	-0.232653	-0.241122	1.00506	-0.181708	0	0	-0.228195	0.0621254	-0.134779	-0.0851188	-0.18403	0.0987055	0.434816	1.12397	0	0	-0.0755587	-0.370145	0.315445	0.745743	1.2776	0	0
2.15	2.33751	1.44121	-0.727797	0.700947	1.6859	0.916159	0.2087	0.118325	-0.186941	0.308954	0.0452472	0	0	-0.0436267	-0.242478	-0.233984	1.05918	-0.240596	0	0	-0.23074	0.0631412	-0.127901	-0.0867341	-0.185917	0.10317	0.440096	1.1117	0	0	-0.0775593	-0.370129	0.318714	0.745887	1.27993	0	0
2.16	2.37009	1.44235	-0.765649	0.702476	1.69653	0.917261	0.185957	0.120474	-0.14965	0.284117	0.0337502	0	0	-0.0127274	-0.246065	-0.22651	1.10713	-0.286453	0	0	-0.233113	0.0594959	-0.122105	-0.08793	-0.186105	0.0979694	0.443724	1.11699	0	0	-0.0798686	-0.370659	0.320045	0.746484	1.28362	0	0
2.17	2.40074	1.44019	-0.801212	0.703801	1.707	0.918892	0.167598	0.123334	-0.137589	0.282508	0.039867	0	0	0.0139065	-0.250706	-0.220226	1.14895	-0.310957	0	0	-0.238172	0.0585807	-0.116096	-0.0887618	-0.187326	0.0915229	0.448704	1.12397	0	0	-0.0807847	-0.369934	0.321093	0.744915	1.28945	0	0
2.18	2.42411	1.43929	-0.828505	0.704995	1.71733	0.920472	0.150924	0.12486	-0.128879	0.280746	0.0468064	0	0	0.0420702	-0.254185	-0.213704	1.19021	-0.298224	0	0	-0.241562	0.0572312	-0.111552	-0.0883404	-0.185572	0.0670226	0.450403	1.1646	0	0	-0.0820678	-0.367199	0.314211	0.740639	1.32035	0	0
2.19	2.45079	1.43904	-0.85872	0.706118	1.72744	0.922152	0.133663	0.124994	-0.120789	0.276534	0.0520234	0	0	0.0713413	-0.256405	-0.206575	1.23338	-0.253047	0	0	-0.244601	0.0546569	-0.108698	-0.0873441	-0.187468	0.0677963	0.454186	1.16391	0	0	-0.0838078	-0.366661	0.313503	0.738824	1.32343	0	0
2.2	2.51398	1.45841	-0.926038	0.707561	1.73784	0.921546	0.123163	0.110999	-0.105173	0.259006	0.0605324	0	0	0.114941	-0.240212	-0.200539	1.27747	-0.194143	0	0	-0.231212	0.0336638	-0.109728	-0.0893383	-0.186743	0.071241	0.457478	1.16175	0	0	-0.0921266	-0.371695	0.312834	0.74462	1.3246	0	0
2.21	2.55803	1.46006	-0.974055	0.708574	1.74764	0.923371	0.106491	0.107633	-0.100288	0.253119	0.064197	0	0	0.144069	-0.238048	-0.195976	1.3112	-0.145835	0	0	-0.233146	0.0280918	-0.107458	-0.0862526	-0.188631	0.0755216	0.457554	1.15977	0	0	-0.0936905	-0.371122	0.31175	0.742381	1.32473	0	0
2.22	2.61034	1.46259	-1.02942	0.709551	1.75751	0.925124	0.0821302	0.103507	-0.0918998	0.234497	0.0684366	0	0	0.172188	-0.233792	-0.19227	1.33597	-0.11165	0	0	-0.233928	0.0212012	-0.105947	-0.0831685	-0.191065	0.0865259	0.455686	1.15334	0	0	-0.0952738	-0.370558	0.310145	0.739466	1.3228	0	0
2.23	2.60001	1.44669	-1.02335	0.710167	1.76656	0.929441	0.06609	0.111275	-0.101158	0.249135	0.0663047	0	0	0.185145	-0.245999	-0.188311	1.34896	-0.0912333	0	0	-0.251291	0.0322762	-0.0987219	-0.0746815	-0.193588	0.0790303	0.449156	1.17442	0	0	-0.0888121	-0.364161	0.309891	0.729065	1.32444	0	0
2.24	2.71353	1.46681	-1.14245	0.711518	1.77644	0.928817	0.0560373	0.0930103	-0.0882456	0.228328	0.0741471	0	0	0.22319	-0.224119	-0.189962	1.36129	-0.0722134	0	0	-0.236583	0.00824525	-0.0979876	-0.0773976	-0.197238	0.111559	0.453628	1.12343	0	0	-0.0960693	-0.370709	0.315384	0.737368	1.30398	0	0
2.25	2.77958	1.46903	-1.21267	0.712384	1.78605	0.930404	0.0320998	0.0871185	-0.080786	0.209258	0.0777851	0	0	0.246324	-0.217411	-0.189973	1.36549	-0.0551916	0	0	-0.237203	0.000578185	-0.0941846	-0.0757505	-0.19761	0.109779	0.450629	1.13076	0	0	-0.0968097	-0.370548	0.315166	0.736727	1.30559	0	0
2.26	2.83309	1.47112	-1.27179	0.71322	1.79538	0.931899	0.0160896	0.0819237	-0.0762978	0.19942	0.0787525	0	0	0.269115	-0.211834	-0.191468	1.36457	-0.0392724	0	0	-0.237526	-0.00542994	-0.0882033	-0.0743836	-0.198683	0.109357	0.448405	1.13442	0	0	-0.0961675	-0.369705	0.315914	0.735618	1.30433	0	0
2.27	2.88397	1.47304	-1.32861	0.714029	1.80465	0.933249	0.000463318	0.0770536	-0.0717325	0.189335	0.0790912	0	0	0.290485	-0.206497	-0.194051	1.35793	-0.0243318	0	0	-0.237584	-0.0109027	-0.0814283	-0.0742383	-0.199749	0.108164	0.447948	1.13646	0	0	-0.0951243	-0.368885	0.317374	0.734856	1.30036	0	0
2.28	2.95178	1.47331	-1.4009	0.7146	1.81425	0.934525	-0.0228384	0.0642869	-0.0863774	0.174349	0.0881108	0	0	0.307851	-0.199134	-0.197253	1.34528	-0.00944205	0	0	-0.238552	-0.0173677	-0.0763431	-0.0756437	-0.200862	0.10609	0.449276	1.14028	0	0	-0.0954535	-0.368746	0.318627	0.736248	1.29413	0	0
2.29	2.8419	1.45237	-1.29701	0.71504	1.82291	0.939103	-0.0382034	0.0868796	-0.099663	0.205138	0.0926367	0	0	0.306094	-0.217843	-0.198287	1.32502	0.00324994	0	0	-0.261813	0.00159948	-0.0641639	-0.0716453	-0.203845	0.094393	0.449203	1.15449	0	0	-0.0852164	-0.362407	0.327538	0.728484	1.25591	0	0
2.3	2.84225	1.44874	-1.30399	0.715764	1.83199	0.940848	-0.0511648	0.0840566	-0.1033	0.208129	0.0952643	0	0	0.318431	-0.220067	-0.205915	1.30361	0.0173489	0	0	-0.267162	0.00267193	-0.0558181	-0.0722077	-0.205578	0.0955335	0.452419	1.14712	0	0	-0.0832413	-0.358427	0.320338	0.726281	1.27164	0	0
2.31	2.90001	1.45078	-1.36598	0.716381	1.84164	0.941411	-0.0804131	0.0753522	-0.112419	0.176988	0.0971694	0	0	0.33276	-0.212291	-0.214274	1.27834	0.0323267	0	0	-0.266088	-0.00545968	-0.0517787	-0.0757433	-0.204932	0.0916228	0.456895	1.14672	0	0	-0.0852106	-0.359331	0.318796	0.730694	1.26383	0	0
2.32	2.89367	1.44673	-1.36554	0.716999	1.85056	0.94292	-0.0912217	0.0726885	-0.11604	0.183832	0.100581	0	0	0.341605	-0.214556	-0.222001	1.24808	0.0446716	0	0	-0.271742	-0.00410948	-0.044958	-0.0756133	-0.206031	0.0873354	0.460694	1.15079	0	0	-0.0836785	-0.357188	0.315989	0.731535	1.25808	0	0
